<?xml version="1.0" encoding="utf-8"?>
<!-- Generator: Adobe Illustrator 22.1.0, SVG Export Plug-In . SVG Version: 6.00 Build 0)  -->
<svg version="1.1" xmlns="http://www.w3.org/2000/svg" xmlns:xlink="http://www.w3.org/1999/xlink" x="0px" y="0px"
	 viewBox="0 0 682 894.9" style="enable-background:new 0 0 682 894.9;" xml:space="preserve">
<style type="text/css">
	.st0{fill:#D5E0EA;}
	.st1{fill:#FFFFFF;}
	.st2{fill:#FFB800;}
	.st3{fill:#00DE60;}
	.st4{fill:#1F0D60;}
	.st5{fill:#FF009D;}
	.st6{fill:#8400EC;}
	.st7{fill:#FF6876;}
	.st8{fill:#D4DFEB;}
	.st9{fill:#FF7D80;}
</style>
<g id="background_1_">
	<g id="background">
		<g id="lines">
			<path class="st0" d="M622.1,737.2c-20.4,29.1-40.9,58.2-61.3,87.3c-2.2,3.2,3,6.2,5.2,3c20.4-29.1,40.9-58.2,61.3-87.3
				C629.5,737.1,624.3,734.1,622.1,737.2L622.1,737.2z"/>
			<path class="st0" d="M541.9,893.8c32.4-29.5,64.3-59.6,95.6-90.2c2.8-2.7-1.5-6.9-4.2-4.2c-31.3,30.7-63.2,60.8-95.6,90.2
				C534.8,892.2,539.1,896.4,541.9,893.8L541.9,893.8z"/>
			<path class="st0" d="M0.3,594.3c15.6,31.5,31.1,62.9,46.7,94.4c1.7,3.5,6.9,0.4,5.2-3c-15.6-31.5-31.1-62.9-46.7-94.4
				C3.8,587.8-1.4,590.8,0.3,594.3L0.3,594.3z"/>
			<path class="st0" d="M95.9,708.6c-4-23.2-8-46.4-12-69.6c-0.7-3.8-6.4-2.2-5.8,1.6c4,23.2,8,46.4,12,69.6
				C90.8,714,96.6,712.4,95.9,708.6L95.9,708.6z"/>
		</g>
		<g id="scheme">
			<g id="window">
				<rect x="518.6" y="375.7" class="st1" width="161.8" height="157.1"/>
				<path class="st2" d="M680.5,534.3H518.6c-0.8,0-1.5-0.7-1.5-1.5V375.7c0-0.8,0.7-1.5,1.5-1.5h161.8c0.8,0,1.5,0.7,1.5,1.5v157.1
					C682,533.6,681.3,534.3,680.5,534.3z M520.1,531.3H679V377.2H520.1V531.3z"/>
			</g>
			<path id="star" class="st2" d="M626.2,456.9c6.8,9.8,13.7,19.7,20.5,29.5c-10.9-3-21.8-6-32.7-9c-2.4,9.2-4.8,18.5-7.2,27.7
				c-4.9-9.4-9.8-18.7-14.7-28.1c-8.9,5.4-17.7,10.8-26.6,16.2c4.1-10.6,8.2-21.1,12.2-31.7c-8.6-4.6-17.2-9.2-25.7-13.9
				c10-2,20-3.9,30.1-5.9c-2.9-9.4-5.7-18.8-8.6-28.2c8.5,6.6,17,13.2,25.5,19.8c6.2-8.9,12.5-17.9,18.7-26.8
				c0.2,11.5,0.4,23,0.6,34.5c10.9-1,21.9-1.9,32.8-2.9C642.8,444.4,634.5,450.6,626.2,456.9z"/>
			<g id="figures">
				<path id="semicircle" class="st0" d="M182.1,206.2c-1.4,23.1-21.5,40.9-44.5,39.6S96.6,224.3,98,201.2
					C126,202.9,154,204.5,182.1,206.2z"/>
				<path id="semicircle_1_" class="st3" d="M41,427.3c7.1-4.1,15.6-3.7,20.7,1.5c5.1,5.2,5.2,13.8,0.8,20.7
					c1.8,1.9,3.7,3.8,5.5,5.7c9.2-8.9,9.5-23.9,0.5-33.1c-8.9-9.2-23.9-9.5-33.1-0.5C37.3,423.5,39.1,425.4,41,427.3z"/>
				<path id="rhomb" class="st4" d="M170.9,14.7c11.4-1.1,22.7-2.2,34.1-3.4c5.1,10.3,10.3,20.7,15.4,31
					c-11.1,0.6-22.3,1.2-33.4,1.8C181.6,34.4,176.3,24.5,170.9,14.7z"/>
				<circle id="circle" class="st5" cx="514.3" cy="82.7" r="18.4"/>
			</g>
			<g id="dotted_line">
				<path class="st0" d="M465,273.3c-0.3,0-0.5-0.2-0.7-0.3c-0.6-0.5-0.7-1.5-0.2-2.1c7.6-8.9,14.3-18.7,19.9-29.2
					c0.4-0.7,1.3-1,2-0.6c0.7,0.4,1,1.3,0.6,2c-5.7,10.7-12.5,20.7-20.3,29.7C466,273.2,465.5,273.4,465,273.3z"/>
				<path class="st0" d="M133.4,393.9c-0.2,0-0.4,0-0.6-0.1c-0.7-0.3-1.1-1.1-0.7-1.7c5.2-9.5,9.7-20,13.4-31.2
					c0.2-0.7,1.1-1.1,1.9-0.9c0.8,0.2,1.3,0.9,1,1.6c-3.8,11.3-8.4,21.9-13.6,31.6C134.5,393.6,134,393.9,133.4,393.9z"/>
				<path class="st0" d="M92.6,433.1c-0.5-0.1-0.9-0.3-1.1-0.8c-0.4-0.7-0.1-1.6,0.6-2c4.7-2.5,9.2-5.4,13.4-8.7
					c5.3-4.1,10.1-8.9,14.3-14.1c0.5-0.6,1.5-0.7,2.1-0.2c0.6,0.5,0.7,1.5,0.2,2.1c-4.4,5.4-9.3,10.3-14.8,14.5
					c-4.3,3.4-9,6.4-13.9,9C93.2,433,92.9,433.1,92.6,433.1z"/>
				<path class="st0" d="M516.5,147.9c-0.1,0-0.2,0-0.3,0c-0.8-0.2-1.4-0.9-1.2-1.7c1.8-9.5,2.9-19.4,3.4-29.4
					c0-0.8,0.7-1.5,1.6-1.4c0.8,0,1.5,0.7,1.4,1.6c-0.5,10.2-1.7,20.2-3.4,29.8C517.8,147.4,517.2,147.9,516.5,147.9z"/>
				<path class="st0" d="M603.9,213.6c-0.6,0-1.2-0.4-1.4-1.1c-2.5-8.5-5.4-17-8.6-25.2c-0.3-0.8,0.1-1.6,0.8-1.9
					c0.8-0.3,1.6,0.1,1.9,0.8c3.3,8.3,6.2,16.9,8.7,25.4c0.2,0.8-0.2,1.6-1,1.9C604.2,213.6,604,213.6,603.9,213.6z"/>
				<path class="st0" d="M618.3,257.1c-0.7,0-1.3-0.5-1.5-1.1c-2.1-8.6-4.6-17.2-7.4-25.6c-0.3-0.8,0.2-1.6,0.9-1.9
					c0.8-0.3,1.6,0.2,1.9,0.9c2.8,8.5,5.3,17.2,7.4,25.8c0.2,0.8-0.3,1.6-1.1,1.8C618.5,257.1,618.4,257.1,618.3,257.1z"/>
				<path class="st0" d="M584.5,167.7c-0.5,0-1.1-0.3-1.3-0.8c-5.2-10.2-11.1-20.2-17.5-29.7c-0.5-0.7-0.3-1.6,0.4-2.1
					c0.7-0.5,1.6-0.3,2.1,0.4c6.4,9.6,12.3,19.7,17.6,30c0.4,0.7,0.1,1.6-0.6,2C585,167.6,584.7,167.7,584.5,167.7z"/>
				<path class="st0" d="M553.7,118.7c-0.4,0-0.9-0.2-1.2-0.6c-4.4-5.4-9-10.7-13.7-15.8c-0.6-0.6-0.5-1.6,0.1-2.1
					c0.6-0.6,1.6-0.5,2.1,0.1c4.8,5.1,9.4,10.5,13.8,15.9c0.5,0.6,0.4,1.6-0.2,2.1C554.3,118.6,554,118.7,553.7,118.7z"/>
				<path class="st0" d="M495.9,63.5c-0.3,0-0.6-0.1-0.9-0.3c-8.6-6.3-17.6-12.3-26.7-17.7c-0.7-0.4-0.9-1.3-0.5-2.1
					c0.4-0.7,1.3-0.9,2.1-0.5c9.2,5.5,18.3,11.5,27,17.9c0.7,0.5,0.8,1.4,0.3,2.1C496.8,63.3,496.3,63.5,495.9,63.5z"/>
				<path class="st0" d="M441.4,31.2c-0.2,0-0.4,0-0.6-0.1c-11.1-5.1-22.5-9.7-34.1-13.4c-0.8-0.3-1.2-1.1-1-1.9
					c0.3-0.8,1.1-1.2,1.9-1c11.6,3.8,23.2,8.4,34.4,13.6c0.8,0.3,1.1,1.2,0.7,2C442.5,30.8,442,31.2,441.4,31.2z"/>
				<path class="st0" d="M379.8,10.1c-0.1,0-0.2,0-0.3,0c-9.9-2.2-20.1-4-30.1-5.1c-0.8-0.1-1.4-0.8-1.3-1.7
					c0.1-0.8,0.8-1.4,1.7-1.3c10.1,1.2,20.4,2.9,30.4,5.2c0.8,0.2,1.3,1,1.1,1.8C381.1,9.7,380.5,10.1,379.8,10.1z"/>
				<path class="st0" d="M283.1,5c-0.7,0-1.4-0.6-1.5-1.3c-0.1-0.8,0.5-1.6,1.3-1.7c12.3-1.5,24.9-2.1,37.4-1.9
					c0.8,0,1.5,0.7,1.5,1.5c0,0.8-0.7,1.5-1.5,1.5c-12.4-0.2-24.8,0.5-37,1.9C283.2,5,283.1,5,283.1,5z"/>
				<path class="st0" d="M224.1,18.7c-0.6,0-1.2-0.4-1.4-1c-0.3-0.8,0.1-1.6,0.9-1.9c7.3-2.6,14.7-4.9,22.2-6.8
					c1.6-0.4,3.2-0.8,4.8-1.2c0.8-0.2,1.6,0.3,1.8,1.1c0.2,0.8-0.3,1.6-1.1,1.8c-1.6,0.4-3.2,0.8-4.8,1.2
					c-7.4,1.9-14.8,4.2-21.9,6.7C224.5,18.7,224.3,18.7,224.1,18.7z"/>
				<path class="st0" d="M143.7,63c-0.4,0-0.9-0.2-1.2-0.6c-0.5-0.7-0.4-1.6,0.3-2.1c7.9-6.2,16.3-12.1,24.7-17.4
					c0.7-0.4,1.6-0.2,2.1,0.5c0.4,0.7,0.2,1.6-0.5,2.1c-8.4,5.3-16.6,11-24.5,17.2C144.3,62.9,144,63,143.7,63z"/>
				<path class="st0" d="M104.8,99.5c-0.4,0-0.7-0.1-1-0.4c-0.6-0.6-0.7-1.5-0.1-2.1c5.2-5.8,10.7-11.5,16.3-16.9
					c0.6-0.6,1.5-0.6,2.1,0s0.6,1.5,0,2.1c-5.6,5.3-11,11-16.2,16.8C105.6,99.4,105.2,99.5,104.8,99.5z"/>
				<path class="st0" d="M72.7,142.4c-0.3,0-0.5-0.1-0.8-0.2c-0.7-0.4-0.9-1.4-0.5-2.1C76.5,132,82,124,87.8,116.3
					c0.5-0.7,1.4-0.8,2.1-0.3c0.7,0.5,0.8,1.4,0.3,2.1c-5.7,7.6-11.2,15.5-16.2,23.6C73.7,142.2,73.2,142.4,72.7,142.4z"/>
				<path class="st0" d="M47.3,192.9c-0.2,0-0.4,0-0.6-0.1c-0.8-0.3-1.1-1.2-0.8-1.9c3.4-8.6,7.2-17.1,11.3-25.4
					c0.4-0.7,1.3-1,2-0.7c0.7,0.4,1,1.3,0.7,2C55.8,175,52,183.5,48.7,192C48.5,192.6,47.9,192.9,47.3,192.9z"/>
				<path class="st0" d="M29.6,256.2c-0.1,0-0.2,0-0.3,0c-0.8-0.1-1.4-0.9-1.2-1.7c1.8-10.5,4.1-21.1,7-31.4c0.2-0.8,1-1.3,1.8-1
					c0.8,0.2,1.3,1,1,1.8c-2.8,10.2-5.1,20.7-6.9,31.1C31,255.7,30.4,256.2,29.6,256.2z"/>
				<path class="st0" d="M26.4,334.2c-0.8,0-1.4-0.6-1.5-1.4c-1.1-13.3-1.4-26.9-0.8-40.2c0-0.8,0.7-1.5,1.6-1.4
					c0.8,0,1.5,0.7,1.4,1.6c-0.6,13.2-0.3,26.6,0.8,39.8c0.1,0.8-0.5,1.6-1.4,1.6C26.5,334.2,26.4,334.2,26.4,334.2z"/>
				<path class="st0" d="M39.7,401.6c-0.6,0-1.2-0.4-1.4-1.1c-3.5-11-6.3-22.2-8.5-33.4c-0.2-0.8,0.4-1.6,1.2-1.8
					c0.8-0.2,1.6,0.4,1.8,1.2c2.2,11.1,5,22.3,8.5,33.1c0.2,0.8-0.2,1.6-1,1.9C40,401.6,39.9,401.6,39.7,401.6z"/>
				<path class="st0" d="M247.9,300.5c-0.3,0-0.5-0.1-0.8-0.2c-8.6-5.4-17.2-11.4-25.5-17.9c-0.7-0.5-0.8-1.5-0.3-2.1
					c0.5-0.7,1.5-0.8,2.1-0.3c8.2,6.4,16.7,12.3,25.3,17.7c0.7,0.4,0.9,1.4,0.5,2.1C248.9,300.2,248.4,300.5,247.9,300.5z"/>
				<path class="st0" d="M206.6,271c-0.3,0-0.6-0.1-0.9-0.3c-4.5-3.3-8.8-7-12.7-11c-3.7-3.8-7.1-7.9-10.2-12.3
					c-0.5-0.7-0.3-1.6,0.4-2.1c0.7-0.5,1.6-0.3,2.1,0.4c2.9,4.2,6.3,8.2,9.9,11.9c3.8,3.9,7.9,7.5,12.3,10.6
					c0.7,0.5,0.8,1.4,0.3,2.1C207.5,270.8,207.1,271,206.6,271z"/>
				<path class="st0" d="M628.1,328.4c1.3,11,1.8,22,1.7,33.1c0,1.9,3,1.9,3,0c0.1-11.1-0.4-22.1-1.7-33.1
					C630.8,326.5,627.8,326.4,628.1,328.4L628.1,328.4z"/>
				<path class="st0" d="M620.7,277.7c1.8,9.9,3.4,19.9,4.6,30c0.2,1.9,3.2,1.9,3,0c-1.3-10.3-2.8-20.6-4.7-30.8
					C623.2,275,620.3,275.9,620.7,277.7L620.7,277.7z"/>
			</g>
		</g>
	</g>
</g>
<g id="general_1_">
	<g id="general">
		<g id="suitcase">
			<path class="st6" d="M222.2,759.7h-35.5h-3h-61h-3H84.3c-14.4,0-26.2,11.7-26.2,26.2v72.7c0,14.5,11.7,26.2,26.2,26.2h138
				c14.5,0,26.2-11.7,26.2-26.2v-72.7C248.4,771.4,236.7,759.7,222.2,759.7z"/>
			<circle class="st4" cx="87.4" cy="882.2" r="12.5"/>
			<circle class="st4" cx="214.4" cy="882.2" r="12.5"/>
			<polygon class="st4" points="197.8,602.7 108.8,602.7 108.8,616.2 119.8,616.2 119.8,759.3 122.8,759.3 122.8,616.2 183.7,616.2 
				183.7,759.3 186.7,759.3 186.7,616.2 197.8,616.2 			"/>
			<path class="st0" d="M185.6,863.6c-1.3,0-2.5-0.3-3.6-1c-1.8-1.2-2.6-3.7-2.6-7.5c0.2-9.5,5.5-23.5,10.7-37
				c5.6-14.7,11-28.6,7.9-32.9c-0.7-1-1.8-1.4-3.3-1.4c-6.9,0.2-18.5,17.3-30.7,35.5c-14.4,21.4-29.2,43.4-39.9,43.4
				c-1.1,0-2.1-0.2-3-0.7c-2-0.9-3.3-2.4-4-4.3c-2.4-7.1,4.4-20,11.6-33.8c8.9-17,18.1-34.5,11.8-43.3c-0.9-1.3-1.8-1.7-2.2-1.9
				c-9.1-4.1-28.8,15.3-55.6,54.5c-0.2,0.2-0.5,0.3-0.7,0.1c-0.2-0.2-0.3-0.5-0.1-0.7c15.7-23,44-60.6,56.8-54.9
				c0.5,0.2,1.6,0.7,2.7,2.2c6.7,9.3-2.6,27.1-11.7,44.4c-7.1,13.5-13.8,26.3-11.5,33c0.6,1.7,1.7,2.9,3.4,3.7
				c10,4.7,26.9-20.3,41.7-42.4c12.4-18.4,24.1-35.8,31.6-36c1.9,0,3.3,0.5,4.1,1.8c3.4,4.8-1.8,18.2-7.8,33.8
				c-5.2,13.4-10.5,27.3-10.7,36.6c-0.1,3.4,0.7,5.6,2.1,6.6c1.6,1.1,3.9,1.1,7,0c8.5-2.9,19.6-13.1,23.2-17.2c-0.2,0-0.4,0-0.5-0.2
				c-0.2-0.2-0.1-0.5,0.1-0.7c1.5-1.2,2-1.4,2.4-1c0.4,0.4,0,1-0.8,2C210.2,849.3,194.7,863.6,185.6,863.6z"/>
		</g>
		<g id="man">
			<g id="hands">
				<g id="hand_l">
					<path class="st7" d="M158.6,284.8C158.6,284.8,158.6,284.8,158.6,284.8c-1.2,0.5-2.5,1-3.7,1.6c-0.6,0.3-1.2,0.5-1.8,0.8
						c-5.7,2.6-11.4,5.1-17.2,7.7c-0.2,0.1-0.4,0.2-0.7,0.3c-0.6,0.3-1.2,0.5-1.8,0.8c-1.7,0.8-3.3,1.5-5,2.2
						c-2.5,1.1-4.9,2.2-7.4,3.3l-15.7-28.1c-1.4-2.6-0.5-5.8,2.1-7.3c1.4-0.8,2.9-0.8,4.3-0.4l-0.4-0.7c-0.5-0.8-0.7-1.7-0.7-2.6
						c0-1.9,1-3.7,2.7-4.7c1.8-1,4-0.8,5.6,0.3l-0.9-1.5c-1.4-2.6-0.5-5.8,2.1-7.3c1.5-0.9,3.3-0.8,4.8-0.2l-5.6-10.1
						c-1.4-2.6-0.5-5.8,2.1-7.3c2.6-1.4,5.8-0.5,7.3,2.1l17.3,31.1l-1-11.7c-0.3-2.9,1.9-5.5,4.8-5.8c2.9-0.3,5.5,1.9,5.8,4.9
						L158.6,284.8z"/>
					<path d="M130.8,260c-0.2,0-0.3-0.1-0.4-0.3l-5.7-10.1c-0.1-0.2,0-0.5,0.2-0.7c0.2-0.1,0.5,0,0.7,0.2l5.7,10.1
						c0.1,0.2,0,0.5-0.2,0.7C131,260,130.9,260,130.8,260z"/>
					<path d="M123.1,265.4c-0.2,0-0.3-0.1-0.4-0.2l-4-6.5c-0.1-0.2-0.1-0.5,0.2-0.7c0.2-0.1,0.5-0.1,0.7,0.2l4,6.5
						c0.1,0.2,0.1,0.5-0.2,0.7C123.3,265.4,123.2,265.4,123.1,265.4z"/>
					<path d="M115.6,272.3c-0.2,0-0.3-0.1-0.4-0.2l-3.8-5.8c-0.2-0.2-0.1-0.5,0.1-0.7c0.2-0.2,0.5-0.1,0.7,0.1l3.8,5.8
						c0.2,0.2,0.1,0.5-0.1,0.7C115.8,272.3,115.7,272.3,115.6,272.3z"/>
				</g>
				<g id="hand_r">
					<path class="st7" d="M531,150.4l-5.6,29.5v0c-14.4,1.4-28.8,2.8-43.2,4.2l-9.7-26.4c-0.2-0.6-0.3-1.2-0.3-1.8
						c0-2.2,1.3-4.2,3.5-5c2.8-1,5.8,0.4,6.9,3.2l5.3,14.4c0.3-3.9,0.7-7.8,1-11.7l-3.2-29c-0.3-2.9,1.8-5.6,4.7-5.9
						c2.9-0.3,5.6,1.8,5.9,4.7l3.3,29.4l2.5-19c0.4-2.9,3.1-5,6-4.6c2.9,0.4,5,3.1,4.6,6l-0.3,2.4c1.1-2,3.4-3.2,5.7-2.8
						c2.9,0.5,4.8,3.3,4.2,6.2l-0.2,1.3c1.2-1.2,3-1.8,4.8-1.5C529.7,144.7,531.6,147.5,531,150.4z"/>
					<path d="M510,149.8c0,0-0.1,0-0.1,0c-0.3-0.1-0.4-0.3-0.4-0.6l2.3-8.4c0.1-0.3,0.3-0.4,0.6-0.4c0.3,0.1,0.4,0.3,0.4,0.6
						l-2.3,8.4C510.4,149.7,510.2,149.8,510,149.8z"/>
					<path d="M519.9,152.9c0,0-0.1,0-0.2,0c-0.3-0.1-0.4-0.4-0.3-0.6l2.1-6.7c0.1-0.3,0.4-0.4,0.6-0.3c0.3,0.1,0.4,0.4,0.3,0.6
						l-2.1,6.7C520.3,152.7,520.1,152.9,519.9,152.9z"/>
				</g>
			</g>
			<g id="legs_1_">
				<g id="legs">
					<path class="st7" d="M431,821.3c-0.1,2.4-0.2,4.7-0.4,7.1c-12.5,5.2-25,10.5-37.5,15.7c-0.2-0.4-4.6-7.2-12.9-7.2
						c-8.2,0-12.6,6.7-12.8,7.2c0-0.2,0.1-0.4,0.1-0.7c0-0.2,0.1-0.4,0.2-0.7c0.1-0.4,0.2-0.9,0.3-1.4c0.1-0.3,0.1-0.5,0.2-0.8
						c0,0,0,0,0-0.1c0.1-0.3,0.1-0.5,0.2-0.8c0.1-0.6,0.3-1.2,0.4-1.8c0.1-0.4,0.2-0.8,0.3-1.1c0.1-0.4,0.2-0.8,0.3-1.2
						c0.1-0.6,0.3-1.2,0.4-1.7c0.1-0.4,0.2-0.7,0.2-1.1c0.1-0.6,0.2-1.1,0.4-1.6c0.1-0.3,0.2-0.7,0.2-1c0-0.2,0.1-0.4,0.1-0.6
						c0.1-0.3,0.1-0.5,0.2-0.7c0-0.1,0.1-0.3,0.1-0.4c0-0.1,0-0.2,0.1-0.3c0-0.2,0.1-0.4,0.1-0.6c0-0.1,0-0.2,0.1-0.3
						c0.4-2,0.9-3.9,1.4-5.9H431z"/>
					<path class="st7" d="M291.2,821.8c-0.1,2.2-0.2,4.3-0.2,6.4c-11.8,5.9-23.5,11.8-35.3,17.8c-0.6-1.1-3.5-6.1-9.7-7.9
						c-8.6-2.5-15.5,3.5-15.9,3.9c0-0.1,0-0.2,0.1-0.3c0-0.1,0.1-0.3,0.1-0.5c0.6-2.4,1.8-7,2.8-10.8c0.1-0.6,0.3-1.2,0.5-1.8
						c0.3-1.2,0.6-2.2,0.8-3c0.1-0.3,0.1-0.5,0.2-0.7c0.3-1.2,0.6-2.3,0.9-3.5C251.8,821.6,274.2,821.7,291.2,821.8z"/>
				</g>
				<g id="socks">
					<path class="st4" d="M290.9,828.2c-6.7,3.4-13.4,6.8-20.1,10.1c-1.6,0.8-3.2,1.6-4.7,2.4c-3.5,1.8-6.9,3.5-10.4,5.2
						c-0.5-0.9-2.7-4.7-7.2-6.9c-0.8-0.4-1.6-0.8-2.6-1c-0.9-0.3-1.9-0.5-2.7-0.5c-7.3-0.7-12.8,4.1-13.2,4.4
						c0.5-1.9,1.7-6.5,2.7-10.6c0.2-0.9,0.5-1.8,0.7-2.7c1.1,0,2.4,0,3.8-0.1c9.7-0.2,25-0.3,36.7-0.3c1.9,0,3.6,0,5.3,0
						C286.2,828.2,290.9,828.2,290.9,828.2z"/>
					<g>
						<path class="st1" d="M237.3,829.2c0,1.5-1.2,2.8-2.8,2.8c-0.7,0-1.3-0.2-1.8-0.6c0.2-0.9,0.5-1.8,0.7-2.7c1.1,0,2.4,0,3.8-0.1
							C237.3,828.8,237.3,829,237.3,829.2z"/>
						<path class="st1" d="M248.7,837.9c0,0.4-0.1,0.8-0.3,1.2c-0.8-0.4-1.6-0.8-2.6-1c-0.9-0.3-1.9-0.5-2.7-0.5
							c0.2-1.4,1.4-2.4,2.8-2.4C247.5,835.1,248.7,836.3,248.7,837.9z"/>
						<circle class="st1" cx="258.5" cy="831.9" r="2.8"/>
						<path class="st1" d="M270.8,838.3c-1.6,0.8-3.2,1.6-4.7,2.4c-0.5-0.5-0.8-1.2-0.8-2c0-1.5,1.2-2.8,2.8-2.8
							C269.4,836,270.6,837,270.8,838.3z"/>
						<path class="st1" d="M279.4,829.2c0,1.5-1.2,2.8-2.8,2.8c-1.5,0-2.8-1.2-2.8-2.8c0-0.3,0-0.6,0.1-0.9c1.9,0,3.6,0,5.3,0
							C279.4,828.5,279.4,828.8,279.4,829.2z"/>
					</g>
					<path class="st4" d="M430.6,828.5c-12.5,5.2-25,10.5-37.5,15.7c-0.2-0.4-4.6-7.2-12.9-7.2c-5,0-8.5,2.5-10.6,4.5
						c-1.4,1.3-2.1,2.5-2.2,2.6c0.2-0.8,0.5-2.1,0.8-3.6c0.9-3.8,2.1-9.2,2.8-12.1H430.6z"/>
					<g>
						<circle class="st1" cx="398.2" cy="836.3" r="2.9"/>
						<path class="st1" d="M417.7,829.5c0,1.6-1.3,2.9-2.9,2.9c-1.6,0-2.8-1.3-2.8-2.9c0-0.4,0.1-0.7,0.2-1h5.3
							C417.6,828.8,417.7,829.1,417.7,829.5z"/>
						<path class="st1" d="M384.1,829.5c0,1.6-1.3,2.9-2.9,2.9c-1.6,0-2.9-1.3-2.9-2.9c0-0.4,0.1-0.7,0.2-1h5.3
							C384,828.8,384.1,829.1,384.1,829.5z"/>
						<path class="st1" d="M369.6,841.5c-1.4,1.3-2.1,2.5-2.2,2.6c0.2-0.8,0.5-2.1,0.8-3.6C368.8,840.7,369.3,841,369.6,841.5z"/>
					</g>
				</g>
				<g id="shoes">
					<path class="st2" d="M366.5,894.6c-38.8-0.1-77.6-0.2-116.4-0.3l-2.7-9.4l-6.7,9.4c-8.1,0.1-16.3,0.1-24.4,0.2
						c2.3-8.7,4.7-17.5,7-26.4c2.3-8.8,4.5-17.5,6.8-26.2c0.4-0.4,7.3-6.4,15.9-3.9c6.2,1.8,9.1,6.8,9.7,7.9
						c11.8-5.9,23.5-11.8,35.3-17.8c-0.4,10.1-0.8,20.2-1.2,30.3c16.7,4.2,30.2,7.2,39.5,9.2c17.8,3.8,28.4,5.4,33.9,14.2
						C365.9,886.3,366.5,891.2,366.5,894.6z"/>
					<path class="st2" d="M505.8,894.9c-39.8-0.1-79.5-0.2-119.3-0.3l-2.8-9.7l-7,9.7c-7,0-14,0-21-0.1c3.9-16.8,7.7-33.7,11.6-50.5
						c0.2-0.4,4.6-7.1,12.8-7.2c8.3,0,12.6,6.8,12.9,7.2c12.5-5.2,25-10.5,37.5-15.7c-0.5,10.1-1.1,20.2-1.6,30.3
						c16.7,4.2,30.2,7.2,39.5,9.2c17.8,3.7,28.4,5.4,33.9,14.2C505.3,886.7,505.8,891.5,505.8,894.9z"/>
					<path class="st4" d="M290.9,846.5H272c-0.3,0-0.5-0.2-0.5-0.5s0.2-0.5,0.5-0.5h18.9c0.3,0,0.5,0.2,0.5,0.5
						S291.2,846.5,290.9,846.5z"/>
					<path class="st4" d="M290.9,851.9H272c-0.3,0-0.5-0.2-0.5-0.5s0.2-0.5,0.5-0.5h18.9c0.3,0,0.5,0.2,0.5,0.5
						S291.2,851.9,290.9,851.9z"/>
					<path class="st4" d="M430.6,846.4C430.6,846.4,430.6,846.4,430.6,846.4l-18.9-0.1c-0.3,0-0.5-0.2-0.5-0.5s0.2-0.5,0.5-0.5
						c0,0,0,0,0,0l18.9,0.1c0.3,0,0.5,0.2,0.5,0.5S430.9,846.4,430.6,846.4z"/>
					<path class="st4" d="M430.6,851.8C430.6,851.8,430.6,851.8,430.6,851.8l-18.9-0.1c-0.3,0-0.5-0.2-0.5-0.5
						c0-0.3,0.3-0.5,0.5-0.5l18.9,0.1c0.3,0,0.5,0.2,0.5,0.5S430.9,851.8,430.6,851.8z"/>
				</g>
				<g id="pants">
					<path class="st8" d="M426.1,475.7c-55.2,16.2-110.4,32.5-165.6,48.7c-16,99-31.9,198-47.8,297c0.9,0,10,0,22.6,0.1
						c16.5,0.1,38.9,0.2,55.9,0.3c12.3,0.1,21.8,0.1,24.3,0.1c9.9-81.7,19.9-163.3,29.8-245c3.7,81.5,7.5,163,11.2,244.4h16.2H431
						h25.3C446.3,706.1,436.2,590.9,426.1,475.7z"/>
					<path class="st4" d="M444,821.8c-0.2,0-0.5-0.2-0.5-0.4c-14.1-112.8-28.1-225.7-42.2-338.5c0-0.3,0.2-0.5,0.4-0.6
						c0.3,0,0.5,0.2,0.6,0.4c14.1,112.8,28.1,225.7,42.2,338.5C444.6,821.6,444.4,821.8,444,821.8C444.1,821.8,444,821.8,444,821.8z
						"/>
					<path class="st4" d="M260.2,822.1c-0.1,0-0.1,0-0.2,0c-0.3-0.1-0.4-0.4-0.3-0.6L344.6,577c0.1-0.3,0.4-0.4,0.6-0.3
						c0.3,0.1,0.4,0.4,0.3,0.6l-84.8,244.5C260.6,822,260.4,822.1,260.2,822.1z"/>
				</g>
			</g>
			<g id="tshirt">
				<path class="st7" d="M169.4,400.6L169.4,400.6l-23.9-41.1l0,0c-0.4-0.8-0.8-1.6-1.2-2.5c-2.6-5.2-5.4-11.2-8.3-17.8
					c-0.1-0.1-0.1-0.3-0.2-0.4l42.7,73.5C176.1,409.5,173.1,405.7,169.4,400.6z"/>
				<path class="st7" d="M373.3,491.4c-0.7,0.2-1.3,0.4-2,0.6L261.4,302.9c0.5-0.5,0.9-1.1,1.4-1.6L373.3,491.4z"/>
				<path class="st7" d="M394.5,485.2c-0.7,0.2-1.3,0.4-2,0.6L277.8,288.5c0.2-0.2,0.5-0.3,0.8-0.5c0.3-0.2,0.6-0.4,1-0.6
					L394.5,485.2z"/>
				<path class="st7" d="M415.6,478.9c-0.7,0.2-1.3,0.4-2,0.6L297.6,279.8c0.7-0.2,1.4-0.4,2-0.5L415.6,478.9z"/>
				<path class="st7" d="M436.8,472.7c-0.7,0.2-1.3,0.4-2,0.6L320.1,276c0.6-0.1,1.4-0.2,2.1-0.4L436.8,472.7z"/>
				<path class="st7" d="M435.6,432l-92.9-159.7c0.7-0.1,1.4-0.2,2.1-0.3l90.5,155.7C435.5,429.1,435.5,430.5,435.6,432z"/>
				<path class="st7" d="M433.2,385.1l-67.1-115.3c0.8,0.1,1.6,0.2,2.4,0.2l64.4,110.7C433,382.2,433.1,383.7,433.2,385.1z"/>
				<path class="st7" d="M440.3,350.7c-0.8-0.1-1.7-0.2-2.5-0.3L392,271.6c0.8,0.1,1.7,0.2,2.5,0.3L440.3,350.7z"/>
				<path class="st7" d="M465.6,351.7c-0.6,0-1.1,0-1.7,0c-0.2,0-0.4,0-0.6,0l-43.9-75.5c0.9,0.2,1.8,0.4,2.7,0.6L465.6,351.7z"/>
				<path class="st7" d="M489.8,350.6c-0.1,0-0.2,0-0.4,0c-0.6,0-1.2,0.1-1.8,0.2L448.8,284c0.9,0.3,1.9,0.6,2.8,0.8L489.8,350.6z"
					/>
				<path class="st7" d="M512.4,346.9c-0.7,0.2-1.3,0.4-2,0.5l-33-56.7c0.8,0.1,1.6,0.1,2.4,0.1L512.4,346.9z"/>
				<path class="st7" d="M532.2,338.3c-0.5,0.4-1.1,0.7-1.7,1.1L494,276.5c0-1.2,0-2.5,0-4L532.2,338.3z"/>
				<path class="st7" d="M546.7,320.5c-0.3,0.8-0.6,1.6-0.9,2.4l-56.4-96.9c-0.2-1.8-0.5-3.5-0.8-5.3L546.7,320.5z"/>
				<path class="st7" d="M547.8,283.7l-58.3-100.2c0.7-0.1,1.5-0.1,2.2-0.2l55.4,95.3C547.3,280.3,547.5,282,547.8,283.7z"/>
				<path class="st7" d="M537.3,223l-24.4-41.9c0.7-0.1,1.5-0.1,2.2-0.2l20.6,35.5C536.3,218.6,536.8,220.8,537.3,223z"/>
				<path class="st9" d="M141.8,306.5c-0.6,0.4-1.1,0.8-1.7,1.1l-6.7-11.6c0.6-0.3,1.2-0.6,1.8-0.8L141.8,306.5z"/>
				<path class="st7" d="M220.1,441.1c-0.8,0-1.6-0.1-2.4-0.2h0l-77.5-133.3c0.5-0.4,1.1-0.8,1.7-1.1L220.1,441.1z"/>
				<path class="st7" d="M267.4,522.5c-0.7,0.2-1.3,0.4-2,0.6l-13.5-23.3v0c0.1-1.2,0.2-2.3,0.3-3.5L267.4,522.5z"/>
				<path class="st9" d="M159.5,294.4c0,0-0.6,0.4-1.6,1.1l-4.8-8.2c0.6-0.3,1.2-0.6,1.8-0.8l4.5,7.7L159.5,294.4z"/>
				<path class="st7" d="M241.9,436c-0.6,0.3-1.2,0.6-1.8,0.9l-82.2-141.4c1-0.7,1.6-1.1,1.6-1.1l0-0.3L241.9,436z"/>
				<path class="st7" d="M288.6,516.3c-0.7,0.2-1.3,0.4-2,0.6l-31.5-54.2c0.1-1.2,0.2-2.3,0.3-3.5L288.6,516.3z"/>
				<path class="st7" d="M309.8,510.1c-0.7,0.2-1.3,0.4-2,0.6l-49.5-85.1v0l-0.5-0.8l-35.6-61.2c0.2,0,0.4,0,0.5,0
					c0.5-0.1,1.1-0.2,1.6-0.3h0L309.8,510.1z"/>
				<path class="st7" d="M330.9,503.8c-0.7,0.2-1.3,0.4-2,0.6l-91.2-156.8c0.2-0.4,0.4-0.8,0.6-1.3l0.4-1L330.9,503.8z"/>
				<path class="st7" d="M352.1,497.6c-0.7,0.2-1.3,0.4-2,0.6L248.4,323.3c0.4-0.7,0.7-1.4,1.1-2.1L352.1,497.6z"/>
			</g>
			<g id="head">
				<path id="face" class="st7" d="M372.9,211.8c2.2-4.5,4.5-9.1,6.7-13.6c-6.1-1.6-12.3-3.2-18.4-4.8c-7.2-7.4-13-12.5-15-14
					c-2.3-1.8-4.5-3.1-4.5-3.1c-0.6-0.3-1-0.6-1.5-0.9c0.3,2,0.6,6.7-1.8,11.8c-2.8,6-7.5,8.9-9.2,9.8c1.9,0.9,5.4,3,8.1,7
					c4.5,6.5,3.8,13.5,3.5,15.3c-6.7,13.4-8.2,19-8,21.3c0,0.2,0,0.4,0,0.4c0.2,0.3,2.3,3.3,2.5,7.1c0,0.2,0,0.4,0,0.7
					c0,0.1,0,0.3,0,0.4c0,0.2,0,0.5-0.1,0.7c0,0.1,0,0.3-0.1,0.4c0,0.3-0.1,0.5-0.2,0.8c0,0.1-0.1,0.2-0.1,0.4
					c-0.1,0.4-0.2,0.8-0.4,1.2c-0.8,1.8-2.9,5.4-5.4,5.9c-0.1,0-0.5,0.1-1,0.2c0,0,0,0,0,0c-0.7,0.2-1.6,0.5-2.1,1
					c-0.1,0.1-0.4,0.5-1,1c-0.1,0.1-0.2,0.2-0.4,0.3c-3.2,2.5-7.5,4.4-11.5,5c1.4,8,2.8,16,4.2,24.1c7.3,0.2,14.6,0.4,21.9,0.6
					c7.9-2.9,15.9-5.7,23.8-8.6l-3.5-20.1l-0.2-1.4c0,0-0.1-0.3-0.3-0.8c2.3-0.8,5.2-1.9,8.3-4.5c10.6-9,10.8-26.4,7.6-37.6
					C374.4,215.2,373.6,213.2,372.9,211.8z"/>
				<path id="hair" d="M337.5,204c-2.8-4-6.2-6-8.1-7c1.7-0.9,6.4-3.8,9.2-9.8c2.4-5.2,2-9.9,1.8-11.8c-2.7-1.5-6.1-3.1-9.9-3.9
					c-13.8-3.1-28.8,3.9-37,14.5c-2.6,3.4-4.2,6.7-5,9c0,0,0,0.1,0,0.1c-5.4,15-0.4,34.6,11.1,48.5c0.4,0.5,0.9,1,1.3,1.5
					c0.4,0.5,0.9,1,1.3,1.4c1.3,1.4,6.3,5.3,7.8,6.1h0c0.4,0.3,0.9,0.5,1.4,0.8l1.7,9.7l0.5,3c4-0.6,8.3-2.4,11.5-5
					c0.1-0.1,0.2-0.2,0.4-0.3c0.6-0.5,0.9-0.9,1-1c0.4-0.5,1.3-0.8,2.1-1c0,0,0,0,0,0c0.5-0.1,0.9-0.2,1-0.2
					c2.5-0.4,4.7-4.1,5.4-5.9c0.7-1.6,0.9-3.3,0.8-4.8c-0.3-3.7-2.3-6.6-2.4-6.9c0,0,0-0.2,0-0.4c-0.2-2.3,1.3-7.9,8-21.3
					C341.3,217.5,342,210.5,337.5,204z"/>
				<g id="ear">
					<path class="st7" d="M343,221.1c-1.9-3-4.7-5-7.7-5.9c-2.7-0.8-5.6-0.9-8.3,0c-1.2,0.4-2.3,0.9-3.4,1.6
						c-6.6,4.2-8.5,12.9-4.4,19.5c4.2,6.6,12.9,8.5,19.5,4.4C345.2,236.4,347.2,227.7,343,221.1z"/>
					<path d="M340.7,232.3C340.7,232.3,340.7,232.3,340.7,232.3c-1.8-0.1-3.3-1.1-4.1-2.7c-0.7-1.4-0.7-2.9-0.1-4.3l-14-1.4
						c-0.3,0-0.5-0.3-0.4-0.5c0-0.3,0.3-0.5,0.5-0.4l14.8,1.5c0.2,0,0.3,0.1,0.4,0.3c0.1,0.2,0.1,0.3,0,0.5c-0.8,1.2-0.9,2.7-0.3,4
						c0.6,1.2,1.9,2,3.3,2.1c0.3,0,0.5,0.2,0.5,0.5C341.2,232.1,341,232.3,340.7,232.3z"/>
				</g>
				
					<ellipse id="brow" transform="matrix(0.6207 -0.7841 0.7841 0.6207 -19.3982 342.7239)" cx="344.5" cy="191.4" rx="8" ry="1.8"/>
				<path id="mouth" d="M364.7,234.2c-2.9,0-6-1.3-8.3-3.8c-0.1-0.1-0.2-0.3-0.1-0.5s0.2-0.3,0.4-0.3l16.4-4.3c0.2,0,0.3,0,0.5,0.1
					c0.1,0.1,0.2,0.3,0.2,0.4c-0.2,1.1-0.9,5-4.3,7C368,233.8,366.3,234.2,364.7,234.2z M357.7,230.3c3.3,3,7.8,3.7,11.1,1.7
					c2.5-1.5,3.4-4.1,3.7-5.6L357.7,230.3z"/>
				<circle id="eye" cx="356.4" cy="199.4" r="2.4"/>
			</g>
		</g>
	</g>
</g>
</svg>
