<?xml version="1.0" encoding="utf-8"?>
<!-- Generator: Adobe Illustrator 22.1.0, SVG Export Plug-In . SVG Version: 6.00 Build 0)  -->
<svg version="1.1" xmlns="http://www.w3.org/2000/svg" xmlns:xlink="http://www.w3.org/1999/xlink" x="0px" y="0px"
	 viewBox="0 0 817.1 816.9" style="enable-background:new 0 0 817.1 816.9;" xml:space="preserve">
<style type="text/css">
	.st0{fill:#D5E0EA;}
	.st1{fill:#1F0D60;}
	.st2{fill:#FFFFFF;}
	.st3{fill:#FF0F97;}
	.st4{fill:#FFC800;}
	.st5{fill:#892BFF;}
	.st6{fill:#00DC99;}
	.st7{fill:#AD2BFF;}
	.st8{fill:#FF0090;}
	.st9{fill:none;stroke:#00DC99;stroke-width:2;stroke-linecap:round;stroke-linejoin:round;stroke-miterlimit:10;}
</style>
<g id="background_1_">
	<g id="background">
		<path id="semicircle" class="st0" d="M615.5,478C437.7,424.7,259.8,371.4,81.9,318c43.9-146.4,200.4-230.7,346.8-186.8
			S659.4,331.6,615.5,478z"/>
		<circle id="circle" class="st0" cx="722.1" cy="595.4" r="81.7"/>
	</g>
</g>
<g id="general_1_">
	<g id="general">
		<g id="table">
			<path class="st1" d="M263.4,752.8c-0.3,0-0.5-0.2-0.5-0.5V336.6c0-0.3,0.2-0.5,0.5-0.5s0.5,0.2,0.5,0.5v415.6
				C263.9,752.5,263.7,752.8,263.4,752.8z"/>
			<path class="st1" d="M774.3,749.5c-0.3,0-0.5-0.2-0.5-0.5V336.6c0-0.3,0.2-0.5,0.5-0.5s0.5,0.2,0.5,0.5V749
				C774.8,749.2,774.5,749.5,774.3,749.5z"/>
			<g>
				<path class="st2" d="M463.3,336.6H211.5v-33c0.2,0,0.3-0.1,0.5-0.1c6.2-0.9,12.2-2.5,18-4.8c0.4-0.2,0.8-0.3,1.2-0.5h46.9
					c0,0.2,0,0.3,0,0.5c-0.7,7.1-1.4,14.2-2.1,21.3c3.8,0.3,7.6,0.5,11.4,0.8l55.1,4c-1-5.4-2.1-10.7-3.1-16
					c-0.7-3.4-1.3-6.8-2-10.1c0-0.2-0.1-0.3-0.1-0.5h53.2v0.5c0,3.2,0.1,6.2,0.1,9c0,3.1,0,6,0.1,8.6c0.1,10,0.1,16.4,0.1,17.4
					c11.7-0.8,23.4-1.6,35.1-2.5c2.2-0.2,4.5-0.3,6.8-0.5c-0.8-10.7-1.5-21.5-2.2-32.2c0-0.2,0-0.3,0-0.5h17.2
					c0.1,0.2,0.1,0.3,0.2,0.5c5.1,12.5,10.2,24.9,15.3,37.3C463.2,336.3,463.2,336.5,463.3,336.6z"/>
				<path class="st2" d="M816.6,298.3v38.3H514.7c-0.1-0.2-0.1-0.3-0.2-0.5c-4.8-12.7-9.6-25.1-14.4-37.3c-0.1-0.2-0.1-0.3-0.2-0.5
					H816.6z"/>
				<path class="st1" d="M447.6,298.3c-0.1-0.2-0.1-0.3-0.2-0.5h-17.1c0,0.2,0,0.3,0,0.5c0,0.2,0,0.3,0,0.5h17.4
					C447.7,298.6,447.7,298.5,447.6,298.3z M463.3,336.6c-0.1-0.2-0.1-0.3-0.2-0.5H212v-32.5c-0.2,0-0.3,0-0.5,0.1
					c-0.2,0-0.3,0-0.5,0.1v32.9c0,0.3,0.2,0.5,0.5,0.5h252C463.4,337,463.4,336.8,463.3,336.6z M278.1,298.3c0-0.2,0-0.3,0.1-0.5
					h-45.7c-0.4,0.2-0.8,0.3-1.2,0.5c-0.4,0.2-0.8,0.3-1.2,0.5h48.1C278.1,298.6,278.1,298.5,278.1,298.3z M816.6,297.8H499.7
					c0.1,0.2,0.1,0.3,0.2,0.5c0.1,0.2,0.1,0.3,0.2,0.5h315.9v37.3H514.5c0.1,0.2,0.1,0.3,0.2,0.5s0.1,0.3,0.2,0.5h301.7
					c0.3,0,0.5-0.2,0.5-0.5v-38.3C817.1,298,816.8,297.8,816.6,297.8z M390.6,297.8h-53.3c0,0.2,0.1,0.3,0.1,0.5
					c0,0.2,0.1,0.3,0.1,0.5h53.1v-0.5C390.6,298.1,390.6,297.9,390.6,297.8z"/>
			</g>
		</g>
		<g id="bin">
			<path id="bin_1_" class="st3" d="M184.9,608.1c-1.1,9.5-2.2,19-3.3,28.4l0,0c-2.6,22-5.1,44.1-7.7,66.1c-1.9,16-3.7,32-5.6,48
				l0,0c-0.7,6-1.4,12.1-2.1,18.1c-1.5,13.1-3.1,26.3-4.6,39.4L62,809.6c-1.5-11-3.1-22.1-4.6-33.1l0,0c-1.2-8.7-2.4-17.4-3.6-26.1
				c-2.1-15.2-4.2-30.4-6.3-45.6c-3.3-23.9-6.7-47.8-10-71.7c-0.5-3.7-1-7.4-1.5-11.1c-0.5-3.3-0.9-6.6-1.4-9.9
				c2.6-0.1,6-0.2,10.1-0.4c6-0.2,13.4-0.4,21.7-0.7c4-0.1,8.3-0.2,12.7-0.4c7-0.2,14.4-0.4,21.8-0.6c4.2-0.1,8.3-0.2,12.5-0.3
				c7.5-0.2,14.9-0.4,22-0.6l0,0c4.2-0.1,8.4-0.2,12.3-0.3c8.3-0.2,15.8-0.4,22.3-0.5c4.7-0.1,8.8-0.2,12-0.2L184.9,608.1z"/>
			<g id="pattern_1_">
				<path class="st1" d="M181.6,637c-0.2,0-0.4-0.2-0.5-0.4l-11.6-28.1c-0.1-0.3,0-0.5,0.3-0.7c0.3-0.1,0.5,0,0.7,0.3l11.6,28.2
					c0,0.1,0,0.1,0,0.2C182.1,636.8,181.8,637,181.6,637z"/>
				<path class="st1" d="M173.8,703.2c-0.2,0-0.4-0.1-0.5-0.3l-31.7-77.2c0,0,0,0,0-0.1l-6.7-16.3c0-0.1-0.1-0.2-0.1-0.2
					c0-0.3,0.2-0.5,0.5-0.5c0.2,0,0.4,0.1,0.5,0.3l6.7,16.4c0,0,0,0,0,0.1l31.7,77.1c0.1,0.3,0,0.5-0.3,0.7
					C174,703.2,173.9,703.2,173.8,703.2z"/>
				<path class="st1" d="M166.1,769.3c-0.2,0-0.4-0.1-0.5-0.3l-2.2-5.3L126,672.4c0,0,0,0,0-0.1l-18.7-45.6c0,0,0,0,0-0.1l-6.8-16.6
					c-0.1-0.3,0-0.5,0.3-0.7c0.3-0.1,0.5,0,0.7,0.3l6.8,16.6c0,0,0,0,0,0.1l18.7,45.6c0,0,0,0,0,0.1l39.7,96.5
					c0.1,0.3,0,0.5-0.3,0.7C166.2,769.3,166.2,769.3,166.1,769.3z"/>
				<path class="st1" d="M147.5,808.9c-0.2,0-0.4-0.1-0.5-0.3l-18-43.7c0,0,0,0,0-0.1l-18.7-45.6c0,0,0,0,0-0.1l-44.4-108
					c-0.1-0.3,0-0.5,0.3-0.7c0.3-0.1,0.5,0,0.7,0.3l44.4,108.1c0,0,0,0,0,0.1l18.7,45.6c0,0,0,0,0,0.1l18,43.7
					c0.1,0.3,0,0.5-0.3,0.7C147.6,808.9,147.5,808.9,147.5,808.9z"/>
				<path class="st1" d="M112.8,809.4c-0.2,0-0.4-0.1-0.5-0.3l-74-180c0,0,0,0,0-0.1l-2.9-7c-0.1-0.3,0-0.5,0.3-0.7
					c0.3-0.1,0.5,0,0.7,0.3l2.9,7.1c0,0,0,0,0,0.1l74,179.9c0.1,0.3,0,0.5-0.3,0.7C112.9,809.4,112.8,809.4,112.8,809.4z"/>
				<path class="st1" d="M78,809.9c-0.2,0-0.4-0.1-0.5-0.3l-24.3-59.1c-0.1-0.3,0-0.5,0.3-0.7c0.3-0.1,0.5,0,0.7,0.3l24.3,59.1
					c0.1,0.3,0,0.5-0.3,0.7C78.2,809.9,78.1,809.9,78,809.9z"/>
				<path class="st1" d="M148.9,808.9c-0.1,0-0.1,0-0.2,0c-0.3-0.1-0.4-0.4-0.3-0.6l19.4-57.7c0.1-0.2,0.2-0.4,0.5-0.4
					c0.3,0,0.5,0.2,0.5,0.5l0,0c0,0.1,0,0.1,0,0.2l-19.4,57.7C149.3,808.8,149.1,808.9,148.9,808.9z"/>
				<path class="st1" d="M114.7,809.4c-0.1,0-0.1,0-0.2,0c-0.3-0.1-0.4-0.4-0.3-0.6l14.8-44.2c0,0,0,0,0,0l52.5-156.5
					c0.1-0.3,0.4-0.4,0.6-0.3c0.3,0.1,0.4,0.4,0.3,0.6L130,764.8c0,0,0,0,0,0L115.1,809C115.1,809.2,114.9,809.4,114.7,809.4z"/>
				<path class="st1" d="M80.4,809.8c-0.1,0-0.1,0-0.2,0c-0.3-0.1-0.4-0.4-0.3-0.6l30.3-90.3c0,0,0,0,0,0l15.7-46.7c0,0,0,0,0-0.1
					l15.7-46.7c0,0,0,0,0-0.1l5.6-16.7c0.1-0.3,0.4-0.4,0.6-0.3c0.3,0.1,0.4,0.4,0.3,0.6l-5.6,16.6c0,0,0,0,0,0.1l-15.7,46.7
					c0,0,0,0,0,0.1l-15.7,46.7c0,0,0,0,0,0l-30.3,90.3C80.8,809.7,80.6,809.8,80.4,809.8z"/>
				<path class="st1" d="M57.4,777c-0.3,0-0.5-0.2-0.5-0.5c0-0.1,0-0.1,0-0.2l50.2-149.8c0,0,0,0,0,0l5.7-17
					c0.1-0.3,0.4-0.4,0.6-0.3c0.3,0.1,0.4,0.4,0.3,0.6l-5.7,16.9c0,0,0,0,0,0L57.9,776.6C57.8,776.8,57.6,777,57.4,777z"/>
				<path class="st1" d="M47.4,705.2c-0.1,0-0.1,0-0.2,0c-0.3-0.1-0.4-0.4-0.3-0.6l31.6-94.1c0.1-0.3,0.4-0.4,0.6-0.3
					c0.3,0.1,0.4,0.4,0.3,0.6l-31.6,94.1C47.8,705.1,47.6,705.2,47.4,705.2z"/>
				<path class="st1" d="M37.4,633.5c-0.1,0-0.1,0-0.2,0c-0.3-0.1-0.4-0.4-0.3-0.6l1.4-4c0,0,0,0,0,0l5.8-17.3
					c0.1-0.3,0.4-0.4,0.6-0.3c0.3,0.1,0.4,0.4,0.3,0.6L39.3,629c0,0,0,0,0,0.1l-1.4,4C37.8,633.3,37.6,633.5,37.4,633.5z"/>
			</g>
			<path class="st1" d="M34.5,612.5c-0.3,0-0.5-0.2-0.5-0.5c0-0.3,0.2-0.5,0.5-0.5l150.4-3.9c0.3,0,0.5,0.2,0.5,0.5
				c0,0.3-0.2,0.5-0.5,0.5L34.5,612.5C34.5,612.5,34.5,612.5,34.5,612.5z"/>
		</g>
		<g id="star_1_">
			<path id="star" class="st4" d="M112.4,483.9c-6.7,16.8-13.5,33.5-20.2,50.3c-5.2-13.8-10.4-27.6-15.5-41.4
				c-13,7.3-26.1,14.6-39.1,21.9c4.7-14.7,9.4-29.4,14.1-44.1c-13.9-5.2-27.8-10.5-41.7-15.7c15.9-6.3,31.9-12.7,47.8-19
				c-2.8-16.7-5.5-33.4-8.3-50.1c11.9,9.2,23.7,18.4,35.6,27.6c10.5-10.5,21-21,31.4-31.5c1.6,14.2,3.2,28.4,4.8,42.6
				c14-1.8,28-3.6,42.1-5.4c-9,11.1-18,22.2-26.9,33.2c9.8,12.5,19.6,25,29.4,37.5C148.1,487.8,130.3,485.9,112.4,483.9z"/>
			<path id="bell" class="st2" d="M114.5,463.8c-10.2-6.2-14.9-12.9-17.4-17.8c-2.3-4.6-3.3-9.3-7.5-10.8c-1.1-0.4-2.4-0.5-3.7-0.4
				c-0.6-0.9-1.4-1.4-2.2-1.2c-0.7,0.2-1.2,1.1-1.2,2.1c-1.3,0.6-2.4,1.4-3.1,2.5c-2.6,3.7,0.2,8.2,1,14.8
				c0.7,5.3,0.2,12.7-4.6,22.2c5.1-1.5,10.3-3,15.4-4.5c0.9,1.7,3,2.6,4.9,2c1.9-0.6,3.2-2.4,3-4.4
				C104.3,466.8,109.4,465.3,114.5,463.8z"/>
		</g>
		<g id="computer">
			<rect x="550.2" y="274.8" class="st1" width="80.7" height="23"/>
			<g>
				<path class="st2" d="M699.8,118.5v156.6h-209c-0.2-0.5-0.4-1-0.6-1.5c-2.5-6.2-5-12.3-7.4-18.4c-0.5-1.2-1-2.5-1.5-3.7V118.5
					H699.8z"/>
				<path class="st4" d="M699.8,117H481.3c-0.8,0-1.5,0.7-1.5,1.5v129.4c0.5,1.2,1,2.5,1.5,3.7c0.5,1.2,1,2.5,1.5,3.7V120h215.6
					v153.6H490.2c0.2,0.5,0.4,1,0.6,1.5l0.6,1.5h208.4c0.8,0,1.5-0.7,1.5-1.5V118.5C701.3,117.7,700.7,117,699.8,117z"/>
			</g>
			<path class="st1" d="M562.5,248.4h-59.4c-0.3,0-0.5-0.2-0.5-0.5v-84.5c0-0.3,0.2-0.5,0.5-0.5h59.4c0.3,0,0.5,0.2,0.5,0.5v84.5
				C563,248.2,562.8,248.4,562.5,248.4z M503.6,247.4H562v-83.5h-58.4V247.4z"/>
			<path class="st1" d="M636.5,141.1h-91.9c-0.3,0-0.5-0.2-0.5-0.5s0.2-0.5,0.5-0.5h91.9c0.3,0,0.5,0.2,0.5,0.5
				S636.8,141.1,636.5,141.1z"/>
			<path class="st1" d="M676.9,186h-48.2c-0.3,0-0.5-0.2-0.5-0.5s0.2-0.5,0.5-0.5h48.2c0.3,0,0.5,0.2,0.5,0.5S677.1,186,676.9,186z"
				/>
			<path class="st1" d="M609.8,186h-24.8c-0.3,0-0.5-0.2-0.5-0.5s0.2-0.5,0.5-0.5h24.8c0.3,0,0.5,0.2,0.5,0.5S610.1,186,609.8,186z"
				/>
			<path class="st1" d="M676.9,199.4h-26.1c-0.3,0-0.5-0.2-0.5-0.5s0.2-0.5,0.5-0.5h26.1c0.3,0,0.5,0.2,0.5,0.5
				S677.1,199.4,676.9,199.4z"/>
			<path class="st1" d="M639.8,199.4h-54.9c-0.3,0-0.5-0.2-0.5-0.5s0.2-0.5,0.5-0.5h54.9c0.3,0,0.5,0.2,0.5,0.5
				S640.1,199.4,639.8,199.4z"/>
			<path class="st1" d="M676.9,212.8h-50.7c-0.3,0-0.5-0.2-0.5-0.5s0.2-0.5,0.5-0.5h50.7c0.3,0,0.5,0.2,0.5,0.5
				S677.1,212.8,676.9,212.8z"/>
			<path class="st1" d="M613.8,212.8h-28.9c-0.3,0-0.5-0.2-0.5-0.5s0.2-0.5,0.5-0.5h28.9c0.3,0,0.5,0.2,0.5,0.5
				S614.1,212.8,613.8,212.8z"/>
			<path class="st1" d="M676.9,226.3h-46c-0.3,0-0.5-0.2-0.5-0.5s0.2-0.5,0.5-0.5h46c0.3,0,0.5,0.2,0.5,0.5S677.1,226.3,676.9,226.3
				z"/>
			<path class="st1" d="M620,226.3h-35.1c-0.3,0-0.5-0.2-0.5-0.5s0.2-0.5,0.5-0.5H620c0.3,0,0.5,0.2,0.5,0.5S620.3,226.3,620,226.3z
				"/>
		</g>
		<g id="woman">
			<g id="pants_1_">
				<path id="pants" class="st5" d="M500.8,661.1c-2.3-10-4.5-20-6.8-30v0c-14.7-65.1-29.4-130.2-44-195.3c-1-4.5-2-8.9-3-13.4
					c-6.8-30.3-13.7-60.6-20.5-91c-11.7,0.8-23.4,1.6-35.1,2.5c0-1,0-7.4-0.1-17.4c0-2.6,0-5.5-0.1-8.6c-17.1,0.3-34.2,0.7-51.2,1
					c1,5.2,2,10.6,3.1,16l-55.1-4c-1.1,6.9-2.2,13.8-3.2,20.6c-1.2,7.7-2.4,15.3-3.6,23c-7.1,45.4-14.2,90.7-21.3,136.1
					c-0.9,5.6-1.8,11.3-2.7,16.9c-6.9,43.9-13.8,87.8-20.7,131.6c-1,6.2-1.9,12.4-2.9,18.6c-2.2,13.7-4.3,27.4-6.4,41
					c9.3-0.2,18.5-0.5,27.8-0.7c20.3-0.5,40.6-1.1,60.9-1.6c4.6-0.1,9.3-0.2,14-0.4c5.9-43.9,11.8-87.7,17.8-131.6
					c1-7.6,2-15.2,3.1-22.8c6.2-45.8,12.4-91.6,18.6-137.4c7,52,14.1,103.9,21.1,155.9c0.6,4.7,1.3,9.4,1.9,14.1
					c5.4,40,10.8,79.9,16.2,119.8c5-0.4,10-0.9,15-1.3c19.3-1.7,38.7-3.4,58-5.1c9-0.8,18.1-1.6,27.1-2.4
					C505.9,684,503.3,672.6,500.8,661.1z"/>
				<g id="pattern">
					<path class="st6" d="M320.4,377.4c-14.9,2.7-29.6-2.6-39.4-12.9c1.2-7.7,2.4-15.3,3.6-23c7.3,15.4,20.5,25.1,33.4,22.7
						c13.3-2.4,22.5-17,23.3-34.9c4.7-0.9,9.4-1.7,14.2-2.6C359.8,350.2,344,373.1,320.4,377.4z"/>
					<path class="st6" d="M450,435.8c-22.2,2.2-43.1-13.2-47.2-35.5c4.7-0.9,9.4-1.7,14.2-2.6c6.4,14.7,18.1,24.7,30,24.8
						C447.9,426.9,448.9,431.3,450,435.8z"/>
					<path class="st6" d="M349,548.5c0.5,1.1,1,2.2,1.5,3.3c-1,7.6-2,15.2-3.1,22.8c-6.4-6.1-10.9-14.2-12.6-23.4
						C339.5,550.3,344.3,549.4,349,548.5z"/>
					<path class="st6" d="M392.1,584.4c-0.6-4.7-1.3-9.4-1.9-14.1c9.4-5.5,15.5-17.8,16.2-32.3c4.7-0.9,9.4-1.7,14.2-2.6
						C424.4,556.7,411.9,577.4,392.1,584.4z"/>
					<path class="st6" d="M500.8,661.1c-6.4,9.2-16.2,16-28,18.1c-23.5,4.3-46.4-11.5-50.7-35.1c4.7-0.9,9.4-1.7,14.2-2.6
						c7.1,16.4,20.8,26.9,34.1,24.4c13.3-2.4,22.5-17,23.3-34.9c0.1,0,0.2,0,0.3-0.1C496.2,641.1,498.5,651.1,500.8,661.1z"/>
					<path class="st6" d="M277.2,686c-17.3,3.2-34.3-4.6-43.7-18.2c1-6.2,1.9-12.4,2.9-18.6c1.4-0.3,2.9-0.5,4.3-0.8
						c7.1,16.4,20.8,26.9,34.1,24.4s22.5-17,23.3-34.9c4.7-0.9,9.4-1.7,14.2-2.6C316.6,658.8,300.7,681.7,277.2,686z"/>
					<path class="st6" d="M257.1,517.5c0.9-5.6,1.8-11.3,2.7-16.9c7.4-6.2,12.1-17.2,12.7-29.8c4.7-0.9,9.4-1.7,14.2-2.6
						C290.6,489.8,277.5,510.9,257.1,517.5z"/>
				</g>
			</g>
			<g id="hands">
				<g id="hand_l">
					<path class="st4" d="M126.4,271.5c0,3-2.5,5.5-5.5,5.5c-3,0-5.5-2.5-5.5-5.5v-23.3l-30.9,16.1c-2.7,1.4-6,0.3-7.4-2.3
						c-0.8-1.6-0.8-3.4-0.1-4.9l-2.1,1.1c-0.8,0.4-1.7,0.6-2.5,0.6c-2,0-3.9-1.1-4.9-2.9c-1.4-2.7-0.4-6,2.3-7.4
						c-1.3-0.5-2.4-1.5-3-2.9c-1.2-2.8,0-6,2.8-7.3l18.1-8.1l-13.1,1.9c-0.3,0-0.5,0.1-0.8,0.1c-2.7,0-5-2-5.5-4.7
						c-0.4-3,1.7-5.8,4.7-6.2c0,0,43-6.4,44.7-6.5c0.2,0,0.5,0,0.8,0c13.6-0.2,23.7,8,24.8,9c-2.9,6.5-5.8,13.3-8.7,20.3
						c-3.1,7.7-6,15.3-8.7,22.6C126.1,268.2,126.3,269.8,126.4,271.5z"/>
					<path d="M77.1,257.5c-0.2,0-0.4-0.1-0.4-0.3c-0.1-0.2,0-0.5,0.2-0.7l27.8-14.7c0.2-0.1,0.5,0,0.7,0.2c0.1,0.2,0,0.5-0.2,0.7
						l-27.8,14.7C77.3,257.5,77.2,257.5,77.1,257.5z"/>
					<path d="M69,249c-0.2,0-0.4-0.1-0.5-0.3c-0.1-0.2,0-0.5,0.2-0.7l29.6-14c0.2-0.1,0.5,0,0.7,0.2s0,0.5-0.2,0.7l-29.6,14
						C69.1,249,69.1,249,69,249z"/>
				</g>
				<g id="hand_r">
					<path class="st4" d="M529.9,381.1c-1.1,0.6-2.4,0.7-3.5,0.4l0.6,1.2c1.3,2.7,0.3,6-2.3,7.4c-1.7,0.9-3.7,0.7-5.2-0.3l0.4,0.8
						c1.3,2.7,0.3,6-2.3,7.4c-2.4,1.3-5.3,0.4-6.7-2c-0.2,1.8-1.2,3.5-2.8,4.4c-2.5,1.4-5.7,0.3-7-2.4l-12.2-25.6l3.7,13.2
						c0.8,2.9-0.8,6-3.5,6.8c-2.7,0.9-5.6-0.8-6.5-3.7c-3-9.1-6-18.3-9.1-27.4c14-7.5,28-15,41.9-22.5l16.7,34.9
						C533.4,376.4,532.4,379.7,529.9,381.1z"/>
					<path d="M510.8,396.5c-0.2,0-0.4-0.1-0.5-0.3l-11-26.7c-0.1-0.3,0-0.5,0.3-0.7c0.3-0.1,0.5,0,0.7,0.3l11,26.7
						c0.1,0.3,0,0.5-0.3,0.7C510.9,396.5,510.8,396.5,510.8,396.5z"/>
					<path d="M519.4,390.3c-0.2,0-0.4-0.1-0.5-0.3l-10.8-24.8c-0.1-0.3,0-0.5,0.3-0.7c0.3-0.1,0.5,0,0.7,0.3l10.8,24.8
						c0.1,0.3,0,0.5-0.3,0.7C519.6,390.3,519.5,390.3,519.4,390.3z"/>
					<path d="M526.3,382.1c-0.2,0-0.4-0.1-0.5-0.3l-9.4-20.2c-0.1-0.2,0-0.5,0.2-0.7c0.2-0.1,0.5,0,0.7,0.2l9.4,20.2
						c0.1,0.2,0,0.5-0.2,0.7C526.5,382,526.4,382.1,526.3,382.1z"/>
				</g>
			</g>
			<g id="shoes">
				<path class="st1" d="M554.6,761.1c0-0.2-0.1-0.3-0.1-0.5c0-0.2-0.1-0.3-0.1-0.5c-1-4.7-2.9-9.5-6.4-13.6
					c-9.5-11.1-23.3-8.3-37.9-15.2c-9.1-4.3-20.3-13.2-29.3-33.5c-19.3,1.7-38.7,3.4-58,5.1c-0.8,15.9-1.5,31.9-2.3,47.8
					c0,0.2,0,0.3,0,0.5c0,0.2,0,0.3,0,0.5c-0.2,3.3-0.3,6.6-0.5,9.8c5.7,0.5,11.4,1,17.2,1.6c0.7-3.2,1.5-6.7,2.5-10.1
					c0-0.2,0.1-0.3,0.1-0.5c0-0.2,0.1-0.3,0.1-0.5c2.4-7.9,5.6-14.7,9.6-14.2c3.9,0.5,7.9,7.8,11.1,15.6c0.1,0.2,0.1,0.3,0.2,0.5
					c0.1,0.2,0.1,0.3,0.2,0.5c1.5,3.9,2.9,7.8,3.9,11.1c30.1,2.8,60.1,5.5,90.2,8.3C555.5,770.2,555.5,765.7,554.6,761.1z
					 M379.7,774.5L379.7,774.5c0-0.3,0-0.7-0.1-1c-0.4-5.1-1.7-10.4-4.9-15.2c-8.2-12.1-22.2-11-35.8-19.5c-8-5-17.2-14.1-23.8-32.3
					c-20.3,0.5-40.6,1.1-60.9,1.6c-2.1,12.9-4.2,25.7-6.4,38.6c0,0.3-0.1,0.7-0.2,1c-0.6,3.6-1.2,7.2-1.8,10.8
					c5.6,1.2,11.2,2.4,16.9,3.5c1.1-3.3,2.5-7,4-10.5c0.1-0.3,0.3-0.6,0.4-0.9c3.2-7.2,7.1-13.2,10.9-12.2c3.8,1,6.8,8.3,9,16.3
					c0.1,0.3,0.2,0.7,0.3,1c1.1,4.2,2,8.5,2.7,12c29.5,6.2,59.1,12.4,88.6,18.7C379.4,783,379.9,778.8,379.7,774.5z"/>
				<path class="st7" d="M379.7,774.5c0,0-0.1,0-0.1,0l-92.4-18.8c-0.3-0.1-0.4-0.3-0.4-0.6c0.1-0.3,0.3-0.4,0.6-0.4l92.4,18.8
					c0.3,0.1,0.4,0.3,0.4,0.6C380.1,774.3,379.9,774.5,379.7,774.5z"/>
				<path class="st7" d="M267,751.6c0,0-0.1,0-0.1,0l-19.2-3.9c-0.3-0.1-0.4-0.3-0.4-0.6c0.1-0.3,0.3-0.4,0.6-0.4l19.2,3.9
					c0.3,0.1,0.4,0.3,0.4,0.6C267.5,751.4,267.2,751.6,267,751.6z"/>
				<path class="st7" d="M554.6,761.1L554.6,761.1l-93.6-6.5c-0.3,0-0.5-0.3-0.5-0.5c0-0.3,0.3-0.5,0.5-0.5l93.6,6.5
					c0.3,0,0.5,0.2,0.5,0.5C555,760.9,554.8,761.1,554.6,761.1z"/>
				<path class="st7" d="M439.9,753.1C439.9,753.1,439.9,753.1,439.9,753.1l-19.3-1.4c-0.3,0-0.5-0.3-0.5-0.5c0-0.3,0.3-0.5,0.5-0.5
					l19.3,1.4c0.3,0,0.5,0.3,0.5,0.5C440.4,752.9,440.2,753.1,439.9,753.1z"/>
			</g>
			<g id="head">
				<path id="hair" d="M440.5,141c-2.8-7-8.6-10.8-11.6-12.4c2-1.2,5.1-3.5,7.6-7.4c5.6-8.6,3.6-17.9,3-20.2
					c-2.1-8.4-7.8-13.1-10.4-15.3c-7.1-5.8-14.7-7-17.8-7.3c8.4-12.6,8.3-28.7,0-40c-10.1-13.7-27.1-13.6-28.7-13.6
					c-0.3-2.7-1.9-12.3-9.9-18.5c-9.7-7.5-24.9-7.1-37,1.9c-1.4-1.8-4-4.8-8.3-6.6c-6.5-2.8-12.5-1.1-16-0.2
					c-2.8,0.8-12.7,4.4-18.7,13.6c-6.5,10-4.6,20.6-4.6,20.6S261.4,24.9,255,57.3c-6.4,32.4,16.8,35.2,16.8,35.2
					s-35.8,5.8-36.5,29.9c-0.8,24.1,19.6,31.1,19.6,31.1s-21.2,15.1-5,31.7c8.8-20.7,21-41.7,44.8-55.3c3.8-2.2,7.1-3.7,9.2-4.6
					c0.5,2.4,4.4,22.5,9.9,50.7c2.1-1.5,3.3-2.5,3.3-2.5s-3,20.2,28.9,16.6c31.5-3.6,22.3-37.3,22.1-38.2
					c6.5,8.1,13.8,14.2,21.1,18.6c-0.4-20.4-0.7-37.4-1.1-46.9c0-0.6,0-1.2-0.1-1.8c5.9,2,11.5,4.4,16.8,7.2
					c15.3,8.3,26.5,19.8,35,32.2C442.2,154.8,443.2,147.6,440.5,141z"/>
				<path id="face" class="st4" d="M381.9,55.2c-0.2-1.3-0.6-3.5-1.3-6.2c-0.5-1.7-1-3.6-1.8-5.7c-0.6-1.6-1.3-3.2-2.1-4.9
					c-5.2,0.2-13.2-0.4-21-5.1c-7.1-4.2-11-9.8-12.9-13c-0.1,4.3-0.8,13.4-5,24c-3.1,7.8-8.1,16.4-16.1,24.7c-1.9,2-4,3.9-6.3,5.8
					c-0.3,0.2-0.5,0.4-0.8,0.7c-1,0.8-2,1.6-3.1,2.4c1.3,2.9,3,5.8,4.9,8.5c0.7,1,1.5,2,2.3,3l0.1,0.9l0,0.2c0,0,0,0,0,0.1
					c0.8,4.7,1.5,9.4,2.2,14.1c0.7,4.6,1.5,9.2,2.2,13.8c0,0.2,0,0.3,0.1,0.5c0.5,0.7,1.1,1.3,1.6,2c0.2-0.2,0.5-0.1,0.7,0.1
					l38,46.6l-1.6-46.8c0-0.3,0.2-0.5,0.5-0.5h0c0-1.4-0.1-2.8-0.2-4.2c-0.1-2.8-0.2-5.6-0.3-8.3c0-0.3,0-0.7,0-1
					c0.1,0,0.2-0.1,0.4-0.1c0.3-0.1,0.6-0.2,0.9-0.4c5-2.1,8.8-5.6,11.7-9.9c1.8-2.7,3.2-5.6,4.3-8.8
					C383.3,77,383.5,64.4,381.9,55.2z"/>
				<path id="nose" d="M367,74.8c-0.1,0-0.2,0-0.3-0.1c-0.2-0.2-0.2-0.5-0.1-0.7l5.2-6L360,57.3c-0.2-0.2-0.2-0.5,0-0.7
					c0.2-0.2,0.5-0.2,0.7,0l12.2,11c0.2,0.2,0.2,0.5,0,0.7l-5.5,6.4C367.3,74.7,367.1,74.8,367,74.8z"/>
				<g id="eyes">
					<path d="M345.8,63.4c-2.2,0-3.9-0.8-4.3-1.1c-0.2-0.1-0.3-0.4-0.2-0.7c0.1-0.2,0.4-0.3,0.7-0.2c0.5,0.3,3.3,1.7,6.4,0.5
						c3.4-1.3,4.4-4.6,4.5-4.9c0.1-0.3,0.4-0.4,0.6-0.3c0.3,0.1,0.4,0.4,0.3,0.6c-0.2,0.7-1.4,4.1-5.2,5.6
						C347.7,63.3,346.7,63.4,345.8,63.4z"/>
					<path d="M371.9,58c-3.9,0-6.6-3.2-6.6-3.3c-0.2-0.2-0.1-0.5,0.1-0.7c0.2-0.2,0.5-0.1,0.7,0.1c0.2,0.2,4.6,5.5,10.2,1.3
						c0.2-0.2,0.5-0.1,0.7,0.1c0.2,0.2,0.1,0.5-0.1,0.7C375.1,57.6,373.4,58,371.9,58z"/>
				</g>
				<g id="brows">
					<ellipse transform="matrix(0.9266 -0.3761 0.3761 0.9266 6.4953 132.5329)" cx="342.7" cy="49.6" rx="6.4" ry="1.9"/>
					
						<ellipse transform="matrix(4.840232e-02 -0.9988 0.9988 4.840232e-02 308.2208 410.3246)" cx="369.5" cy="43.4" rx="1.9" ry="6.4"/>
				</g>
				<path d="M362.2,86.8c-9,0-10.7-6.9-10.7-6.9c-0.1-0.3,0.1-0.5,0.4-0.6c0.3-0.1,0.5,0.1,0.6,0.4c0.1,0.3,1.7,6.7,10.7,6.1
					c0.3,0,0.5,0.2,0.5,0.5c0,0.3-0.2,0.5-0.5,0.5C362.9,86.8,362.5,86.8,362.2,86.8z"/>
				<path d="M355.8,108.7c-0.8,0-1.5,0-2.3-0.1c-6.3-0.6-11-3.2-13.8-5.4c-0.2-0.2-0.3-0.5-0.1-0.7c0.2-0.2,0.5-0.3,0.7-0.1
					c2.7,2.1,7.2,4.6,13.3,5.2c3.7,0.3,7.6-0.2,11.1-1.5c0.3-0.1,0.5,0,0.6,0.3c0.1,0.3,0,0.5-0.3,0.6
					C362.1,108.1,358.9,108.7,355.8,108.7z"/>
				<path id="bezel" class="st8" d="M309.4,69.9c-0.6,0-1.2-0.4-1.4-0.9c-6.1-15-2.9-31.8,8.1-42.8c15.4-15.3,37.3-9.7,38.3-9.5
					c6.8,1.8,13.1,5.5,18.3,10.6c0.6,0.6,0.6,1.5,0,2.1c-0.6,0.6-1.5,0.6-2.1,0c-4.8-4.8-10.7-8.2-16.9-9.8
					c-0.9-0.2-21.2-5.4-35.4,8.7c-10.1,10.1-13,25.6-7.4,39.5c0.3,0.8-0.1,1.6-0.8,2C309.8,69.8,309.6,69.9,309.4,69.9z"/>
				<g id="ear">
					<circle class="st4" cx="312.7" cy="78.8" r="13.2"/>
					<path d="M318.5,84.2c-0.1,0-0.1,0-0.2,0c-1.7-0.6-2.7-1.5-2.9-2.7c-0.3-1.6,1-3.2,1.7-3.9l-8.5-6.8c-0.2-0.2-0.3-0.5-0.1-0.7
						c0.2-0.2,0.5-0.3,0.7-0.1l8.9,7.1c0.1,0.1,0.2,0.2,0.2,0.4c0,0.1-0.1,0.3-0.2,0.4c-0.6,0.5-2,2.1-1.8,3.4
						c0.1,0.8,0.9,1.5,2.3,1.9c0.3,0.1,0.4,0.4,0.3,0.6C318.9,84.1,318.7,84.2,318.5,84.2z"/>
				</g>
				<g id="earrings">
					<path class="st5" d="M384.8,95.8c-3.2,0.3-6.4,0.5-9.6,0.8c1.8-2.7,3.2-5.6,4.3-8.8C381.3,90.4,384.8,95.8,384.8,95.8z"/>
					<path class="st5" d="M318.8,90.7c0.5-0.4,0.8-1,0.8-1.7c0.1-1.4-1-2.5-2.4-2.6s-2.5,1-2.6,2.4c0,0.9,0.4,1.7,1.1,2.1
						c-2.3,4.8-6.6,14.6-6.6,14.6s18.9-0.8,18.4-1.2C327.3,104,321.6,95.1,318.8,90.7z"/>
				</g>
			</g>
			<g id="blouse_1_">
				<path id="blouse" class="st8" d="M390.6,303.9L390.6,303.9c0-1.2,0-2.4,0-3.6v0c-0.1-8.7-0.2-18.6-0.3-29.3v0c0-1.4,0-2.7,0-4.1
					c-0.1-9.4-0.2-19.3-0.3-29.4c0-1.5,0-3-0.1-4.5c-0.1-11-0.3-22.1-0.4-32.9c0-1.6,0-3.2-0.1-4.8v0c-0.1-9.9-0.3-19.5-0.4-28.3
					c0-1.7-0.1-3.3-0.1-4.9c-0.2-11.2-0.4-21.1-0.7-28.9c-0.1-1.6-0.1-3.2-0.1-4.6c-0.1-2-0.1-3.7-0.2-5.3c0-0.6,0-1.2-0.1-1.8
					c-8.1-2.7-16.6-4.5-25.4-5.3c0.1,1.4,0.1,2.8,0.2,4.2h0c-0.3,0-0.5,0.2-0.5,0.5l1.6,46.8l-38-46.6c-0.2-0.2-0.5-0.2-0.7-0.1
					c-0.5-0.6-1.1-1.3-1.6-2c0-0.2-0.1-0.3-0.1-0.5c-2.5,0.6-5,1.2-7.4,2c-3.3,1-6.5,2.1-9.7,3.4h0c-0.8,0.3-1.6,0.7-2.4,1.1
					c5.2,26.7,15.1,77.9,23.9,123.1v0c0.3,1.5,0.6,2.9,0.8,4.3c3.4,17.6,6.6,34.2,9.3,47.8c0.2,0.8,0.3,1.6,0.5,2.4
					c0.1,0.5,0.2,1,0.3,1.5c0.2,1,0.4,2,0.6,3c0.6,3.1,1.2,6,1.7,8.7c9.2,0.1,18.4,0.2,27.5,0.3c7.5,0.1,14.9,0.1,22.4,0.2
					C390.7,312.8,390.7,308.5,390.6,303.9z"/>
				<g id="dots_pattern">
					<circle class="st1" cx="315.2" cy="130.9" r="2.4"/>
					<path class="st1" d="M367,130.9c0,1.3-1.1,2.4-2.4,2.4c-0.4,0-0.8-0.1-1.1-0.2c-0.2-0.1-0.3-4.2-0.1-4.3
						c0.4-0.2,0.8-0.3,1.2-0.3C365.9,128.5,367,129.5,367,130.9z"/>
					<path class="st1" d="M388.3,133.2c-1-0.3-1.7-1.2-1.7-2.3c0-1,0.6-1.9,1.6-2.3C388.2,130.1,388.2,131.6,388.3,133.2z"/>
					<circle class="st1" cx="327.1" cy="146.3" r="2.4"/>
					<circle class="st1" cx="376.5" cy="146.3" r="2.4"/>
					<circle class="st1" cx="315.2" cy="164.6" r="2.4"/>
					<circle class="st1" cx="339.6" cy="164.6" r="2.4"/>
					<path class="st1" d="M367,164.6c0,1.3-1,2.4-2.3,2.4h-0.1c-0.1,0-0.3,0-0.4,0c-0.2,0-0.3-4.8-0.2-4.8c0.2,0,0.3-0.1,0.5-0.1
						h0.1C365.9,162.1,367,163.2,367,164.6z"/>
					<path class="st1" d="M389,167L389,167c-1.4,0-2.4-1.1-2.4-2.4c0-1.3,1-2.4,2.4-2.4C388.9,163.7,389,165.4,389,167z"/>
					<circle class="st1" cx="327.7" cy="182.4" r="2.4"/>
					<circle class="st1" cx="352.1" cy="182.4" r="2.4"/>
					<circle class="st1" cx="377.1" cy="182.4" r="2.4"/>
					<circle class="st1" cx="339.6" cy="197.8" r="2.4"/>
					<circle class="st1" cx="364.6" cy="197.8" r="2.4"/>
					<path class="st1" d="M389.5,200.1c-0.2,0-0.3,0.1-0.5,0.1c-1.3,0-2.4-1.1-2.4-2.4c0-1.3,1.1-2.4,2.4-2.4c0.2,0,0.3,0,0.5,0v0
						C389.5,196.9,389.5,198.5,389.5,200.1z"/>
					<circle class="st1" cx="327.7" cy="216.1" r="2.4"/>
					<circle class="st1" cx="352.1" cy="216.1" r="2.4"/>
					<circle class="st1" cx="377.1" cy="216.1" r="2.4"/>
					<circle class="st1" cx="339.6" cy="235.3" r="2.4"/>
					<circle class="st1" cx="364.6" cy="235.3" r="2.4"/>
					<path class="st1" d="M390,237.5c-0.3,0.1-0.7,0.2-1,0.2c-1.3,0-2.4-1.1-2.4-2.4c0-1.3,1.1-2.4,2.4-2.4c0.3,0,0.7,0.1,1,0.2
						C390,234.5,390,236,390,237.5z"/>
					<path class="st1" d="M329.5,250.6c0,0.8-0.4,1.5-1,2c-0.3-1.4-0.6-2.9-0.8-4.3C328.7,248.5,329.5,249.5,329.5,250.6z"/>
					<circle class="st1" cx="352.1" cy="250.6" r="2.4"/>
					<circle class="st1" cx="376.5" cy="250.6" r="2.4"/>
					<circle class="st1" cx="339.6" cy="268.9" r="2.4"/>
					<circle class="st1" cx="364.6" cy="268.9" r="2.4"/>
					<path class="st1" d="M390.3,271L390.3,271c-0.4,0.3-0.9,0.4-1.4,0.4c-1.3,0-2.4-1.1-2.4-2.4s1.1-2.4,2.4-2.4
						c0.5,0,0.9,0.1,1.3,0.4C390.3,268.3,390.3,269.6,390.3,271z"/>
					<circle class="st1" cx="352.1" cy="286.7" r="2.4"/>
					<circle class="st1" cx="377.1" cy="286.7" r="2.4"/>
					<circle class="st1" cx="364.6" cy="302.1" r="2.4"/>
					<path class="st1" d="M342,304.9c0,1.4-1.1,2.4-2.4,2.4c-0.1,0-0.3,0-0.5,0c-0.2-1-0.4-2-0.6-3c-0.1-0.5-0.2-1-0.3-1.5
						c0.4-0.2,0.8-0.4,1.3-0.4C340.9,302.5,342,303.6,342,304.9z"/>
					<path class="st1" d="M390.6,303.9L390.6,303.9c-0.4,0.4-1,0.6-1.7,0.6c-1.3,0-2.4-1.1-2.4-2.4c0-1.3,1.1-2.4,2.4-2.4
						c0.6,0,1.2,0.2,1.6,0.6v0C390.6,301.5,390.6,302.7,390.6,303.9z"/>
				</g>
				<path class="st1" d="M364.8,169.3c0,0.2-0.1,0.4-0.3,0.5c-0.1,0-0.1,0-0.2,0c-0.1,0-0.3-0.1-0.4-0.2l-39-47.8
					c-0.2-0.2-0.1-0.5,0.1-0.7c0.2-0.2,0.5-0.1,0.7,0.1l38,46.6l0-1l-0.2-4.5l-1-30.2l-0.1-2.3l-0.3-8.8c0-0.3,0.2-0.5,0.5-0.5h0
					c0.3,0,0.5,0.2,0.5,0.5l0.3,7.9l0.1,4.3l1,29l0.2,4.9L364.8,169.3z"/>
				<path class="st1" d="M390.7,317C390.7,317,390.7,317,390.7,317l-32.6-0.3c-0.3,0-0.5-0.2-0.5-0.5s0.2-0.5,0.5-0.5l32.6,0.3
					c0.3,0,0.5,0.2,0.5,0.5C391.2,316.8,391,317,390.7,317z"/>
			</g>
			<g id="cardigan">
				<path class="st9" d="M342.5,324.8l-55.1-4c-3.8-0.3-7.6-0.5-11.4-0.8c0.7-7.1,1.4-14.2,2.1-21.3c0-0.2,0-0.3,0-0.5
					c0-0.2,0-0.3,0.1-0.5c1.7-17.2,3.3-34.4,5-51.6c-10.5,23.7-28.9,42.3-50.8,51.6c-0.4,0.2-0.8,0.3-1.2,0.5
					c-0.4,0.2-0.8,0.3-1.2,0.5c-5.8,2.3-11.8,3.9-18,4.8c-0.2,0-0.3,0-0.5,0.1c-0.2,0-0.3,0-0.5,0.1c-1.2,0.2-2.4,0.3-3.6,0.4
					c0,0-45.2,4.4-81-37.5c2.1-5.8,4.2-11.6,6.4-17.4c3.6-8.5,7.1-17,10.7-25.5c0,0,0,0-0.1-0.1c0,0,0,0,0,0
					c36.5,28.7,57.1,29.9,69.5,24.7c19.5-8.3,25.1-35.4,36.9-63.2c8.8-20.7,21-41.7,44.8-55.3c3.8-2.2,7.1-3.7,9.2-4.6
					c0.5,2.4,4.4,22.5,9.9,50.7c4,20.4,8.8,45.1,13.7,70.5c0.3,1.4,4.6,23.5,10,51.4c0,0.2,0.1,0.3,0.1,0.5c0,0.2,0.1,0.3,0.1,0.5
					c0.6,3.3,1.3,6.7,2,10.1C340.4,314.1,341.5,319.4,342.5,324.8z"/>
				<path class="st9" d="M515.5,338.8C515.5,338.8,515.5,338.8,515.5,338.8c-14,7.5-28,15-42,22.5c0,0-0.1,0-0.1,0.1
					c-3.3-8.1-6.6-16.1-9.9-24.2c-0.1-0.2-0.1-0.3-0.2-0.5s-0.1-0.3-0.2-0.5c-5.1-12.5-10.2-24.9-15.3-37.3
					c-0.1-0.2-0.1-0.3-0.2-0.5c-0.1-0.2-0.1-0.3-0.2-0.5c-6.9-16.8-13.7-33.6-20.6-50.3c1.2,16.8,2.3,33.6,3.5,50.3
					c0,0.2,0,0.3,0,0.5c0,0.2,0,0.3,0,0.5c0.8,10.7,1.5,21.5,2.2,32.2c-2.2,0.2-4.5,0.3-6.8,0.5c-11.7,0.8-23.4,1.6-35.1,2.5
					c0-1,0-7.4-0.1-17.4c0-2.6,0-5.5-0.1-8.6c0-2.8,0-5.9-0.1-9v-0.5c0-0.2,0-0.3,0-0.5c-0.3-34.7-0.8-87.6-1.5-127.5
					c-0.4-20.4-0.7-37.4-1.1-46.9c0-0.6,0-1.2-0.1-1.8c5.9,2,11.5,4.4,16.8,7.2c15.3,8.3,26.5,19.8,35,32.2
					c9.4,13.6,15.7,28.2,21,40.8c6.4,15.1,12.8,30.5,19.2,46.1c0.5,1.2,1,2.5,1.5,3.7c0.5,1.2,1,2.5,1.5,3.7
					c2.5,6.1,4.9,12.2,7.4,18.4c0.2,0.5,0.4,1,0.6,1.5l0.6,1.5c2.8,7,5.6,14,8.4,21.2c0.1,0.2,0.1,0.3,0.2,0.5
					c0.1,0.2,0.1,0.3,0.2,0.5c4.8,12.2,9.6,24.7,14.4,37.3c0.1,0.2,0.1,0.3,0.2,0.5s0.1,0.3,0.2,0.5
					C515.1,337.7,515.3,338.2,515.5,338.8z"/>
			</g>
		</g>
	</g>
</g>
</svg>
